# xmcd
#
# Track frame offsets:
# 225
# 17072
# 34599
# 50602
# 66491
# 79001
# 93369
# 108063
# 125297
# 141098
# 156352
# 170599
# 183047
# 196733
#
# Disc length: 2801 seconds
#
#
# Revision: 3
# Processed by: cddbd v1.5.1PL2 Copyright (c) Steve Scherf et al.
# Submitted via: FreeRIP 2.945 
#
DISCID=b10aee0e
DTITLE=Kneipenknaller CD 3 - Kneipenknaller [CD 3)
DYEAR=1900
DGENRE=Pop
TTITLE0=Die 3 Besoffkis - Ein Bier, ein Korn
TTITLE1=David Wagner - Griechischer Wein
TTITLE2=Ibo - Bungalow in Santa Nirgendwo
TTITLE3=Die Partygeier - Wahnsinn (Hölle, Hölle, Hälle)
TTITLE4=Trio Melody - Die Show beginnt
TTITLE5=Roland Brüggen - Mädchen aus Gold (Hot Love)
TTITLE6=Tennessee - Gelabert wird von früh bis spät
TTITLE7=Klaus Densow - So'n kleiner Seitensprung
TTITLE8=Die Alpen Gigolos - Bleib' immmer locker
TTITLE9=Jan Hayston - Du machst mir gute Laune
TTITLE10=Die Partyknaller - In der Schinkenstraße und am Ballermann
TTITLE11=Eugen and Akkordmalocher - Immer Zeit für gute Laune
TTITLE12=Die Muntermacher - Immer wieder
TTITLE13=Gaby Baginsky - Der Rum von Barbados
EXTD=
EXTT0=
EXTT1=
EXTT2=
EXTT3=
EXTT4=
EXTT5=
EXTT6=
EXTT7=
EXTT8=
EXTT9=
EXTT10=
EXTT11=
EXTT12=
EXTT13=
PLAYORDER=
